<svg height="512pt" viewBox="-75 0 512 512" width="512pt" xmlns="http://www.w3.org/2000/svg"><path d="m302 0h-242c-33.085938 0-60 26.914062-60 60v332c0 33.085938 26.914062 60 60 60h48v60h40v-60h64v60h40v-60h50c33.085938 0 60-26.914062 60-60v-332c0-33.085938-26.914062-60-60-60zm-242 40h242c11.027344 0 20 8.972656 20 20v266.128906c-29.4375-9.257812-85.257812-24.128906-140-24.128906-54.148438 0-111.230469 14.558594-142 23.796875v-265.796875c0-11.027344 8.972656-20 20-20zm242 372h-242c-11.027344 0-20-8.972656-20-20v-24.277344c23.074219-7.4375 85.5625-25.722656 142-25.722656 57.949219 0 119.683594 19.3125 140 26.253906v23.746094c0 11.027344-8.972656 20-20 20zm-181.5-201.199219h-40c0-55.535156 45.085938-100.71875 100.5-100.71875s100.5 45.183594 100.5 100.71875h-40c0-14.339843-4.992188-27.527343-13.304688-37.929687l-23.441406 37.929687h-47.023437l36.597656-59.214843c-4.292969-.972657-8.75-1.503907-13.328125-1.503907-33.359375 0-60.5 27.238281-60.5 60.71875zm0 0"/></svg>