<svg height="512pt" viewBox="0 0 512 512" width="512pt" xmlns="http://www.w3.org/2000/svg" xmlns:xlink="http://www.w3.org/1999/xlink"><linearGradient id="a" gradientUnits="userSpaceOnUse" x1="256" x2="256" y1="0" y2="512"><stop offset="0" stop-color="#2af598"/><stop offset="1" stop-color="#009efd"/></linearGradient><path d="m511.894531 197v-40h-40v40h-28v-40h-40v77h.105469v4.453125c0 19.679687 14.824219 35.949219 33.894531 38.257813v56.289062c0 11.027344-8.972656 20-20 20h-57.894531v-233h30v-40h-30v-20c0-33.085938-26.914062-60-60-60h-240c-33.085938 0-60 26.914062-60 60v352c0 26.074219 16.722656 48.304688 40 56.558594v43.441406h40v-40h200v40h40v-43.441406c23.277344-8.253906 40-30.484375 40-56.558594v-19h57.894531c33.082031 0 60-26.914062 60-60v-56.261719c19.167969-2.210937 34.105469-18.53125 34.105469-38.285156v-41.453125zm-191.894531 215c0 11.027344-8.972656 20-20 20h-240c-11.027344 0-20-8.972656-20-20v-352c0-11.027344 8.972656-20 20-20h240c11.027344 0 20 8.972656 20 20zm-80-332h40v312h-40zm-160 0h40v312h-40zm80 0h40v312h-40zm0 0" fill="url(#a)"/></svg>